<?xml version="1.0" encoding="utf-8"?>
<!-- Generator: Adobe Illustrator 24.0.0, SVG Export Plug-In . SVG Version: 6.00 Build 0)  -->
<svg version="1.1" xmlns="http://www.w3.org/2000/svg" xmlns:xlink="http://www.w3.org/1999/xlink" x="0px" y="0px"
	 viewBox="0 0 64 64" enable-background="new 0 0 64 64" xml:space="preserve">
<g id="Captions">
</g>
<g id="Icons">
	<g>
		<g>
			<path fill="#FA6450" d="M55.689,21.286C54.546,21.742,53.303,22,52,22c-1.039,0-2.04-0.16-2.983-0.455
				C50.896,24.592,52,28.165,52,32c0,4.495-1.509,8.635-4.022,11.978l-4.536-4.536l-3.2,4.8l3.736,3.736
				C40.635,50.491,36.495,52,32,52c-11.028,0-20-8.972-20-20c0-4.495,1.509-8.635,4.022-11.978L22,26v-3.893
				c0-1.124,0.464-2.156,1.199-2.909l-3.177-3.177C23.365,13.509,27.505,12,32,12c3.835,0,7.408,1.104,10.455,2.983
				C42.16,14.04,42,13.039,42,12c0-1.303,0.258-2.546,0.714-3.689C39.446,6.831,35.821,6,32,6C17.641,6,6,17.641,6,32v0
				c0,14.359,11.641,26,26,26s26-11.641,26-26v0C58,28.179,57.169,24.554,55.689,21.286z"/>
		</g>
		<g>
			<path fill="#F0C8A0" d="M45.629,32.556C45.871,32.194,46,31.767,46,31.331c0-1.967-2.379-2.953-3.77-1.562L40,32V20.107
				c0-0.996-0.681-1.92-1.664-2.08C37.083,17.824,36,18.785,36,20v-2c0-1.215-1.083-2.176-2.336-1.973
				C32.681,16.187,32,17.111,32,18.107V20c0-1.215-1.083-2.176-2.336-1.973C28.681,18.187,28,19.111,28,20.107V22
				c0-1.215-1.083-2.176-2.336-1.973c-0.328,0.053-0.619,0.198-0.866,0.396l-0.169,0.173c-0.299,0.307-0.497,0.679-0.582,1.077
				c-0.002,0.01-0.006,0.019-0.007,0.029C24.014,21.834,24,21.97,24,22.107v8.722v17.271C26.414,49.305,29.124,50,32,50
				c2.069,0,4.088-0.36,6-1.046V44L45.629,32.556z"/>
		</g>
		<g>
			<path fill="#D2AA82" d="M37,18.273c-0.596,0.346-1,0.987-1,1.727v12h1V18.273z"/>
		</g>
		<g>
			<path fill="#D2AA82" d="M33,32V16.274c-0.612,0.372-1,1.081-1,1.833V20v12H33z"/>
		</g>
		<g>
			<path fill="#D2AA82" d="M29,32V18.274c-0.612,0.372-1,1.081-1,1.833V22v10H29z"/>
		</g>
		<g>
			<path fill="#D2AA82" d="M24.725,20.499l-0.095,0.097c-0.185,0.19-0.327,0.407-0.432,0.637c-0.024,0.056-0.047,0.112-0.067,0.169
				c-0.027,0.075-0.052,0.151-0.07,0.229C24.026,21.786,24,21.944,24,22.105c0,0.001,0,0.001,0,0.002v8.722v17.271
				c0.331,0.165,0.658,0.338,1,0.482V20.274C24.898,20.336,24.813,20.42,24.725,20.499z"/>
		</g>
		<g>
			<path fill="#DC4632" d="M10,32L10,32C10,18.317,20.571,7.112,33.991,6.085C33.333,6.035,32.671,6,32,6C17.641,6,6,17.641,6,32v0
				c0,14.359,11.641,26,26,26c0.674,0,1.339-0.034,2-0.084C20.576,56.894,10,45.686,10,32z"/>
		</g>
		<g>
			<circle fill="#FAB400" cx="52" cy="12" r="8"/>
		</g>
		<g>
			<path fill="#DC9600" d="M45.983,12c0-4.082,3.059-7.443,7.009-7.932C52.666,4.027,52.336,4,52,4c-4.418,0-8,3.582-8,8
				s3.582,8,8,8c0.336,0,0.666-0.027,0.991-0.068C49.042,19.443,45.983,16.082,45.983,12z"/>
		</g>
		<g>
			<polygon fill="#F0F0F0" points="55.536,14.121 53.414,12 55.536,9.879 54.121,8.464 52,10.586 49.879,8.464 48.464,9.879 
				50.586,12 48.464,14.121 49.879,15.536 52,13.414 54.121,15.536 			"/>
		</g>
	</g>
</g>
</svg>
